<?xml version="1.0" standalone="no"?>
<!DOCTYPE svg PUBLIC "-//W3C//DTD SVG 20010904//EN"
 "http://www.w3.org/TR/2001/REC-SVG-20010904/DTD/svg10.dtd">
<svg version="1.0" xmlns="http://www.w3.org/2000/svg"
 width="300.000000pt" height="300.000000pt" viewBox="0 0 300.000000 300.000000"
 preserveAspectRatio="xMidYMid meet">
<metadata>
Created by potrace 1.10, written by Peter Selinger 2001-2011
</metadata>
<g transform="translate(0.000000,300.000000) scale(0.100000,-0.100000)"
fill="#000000" stroke="none">
<path d="M1370 2671 c0 -328 0 -330 23 -356 32 -37 82 -41 202 -15 140 32 196
35 234 16 57 -30 77 -105 45 -172 -32 -67 -95 -79 -223 -43 -44 13 -108 22
-153 23 -68 1 -79 -2 -102 -23 l-26 -24 -2 -221 -3 -221 -95 -3 -96 -3 1 118
c0 111 -2 122 -29 178 -37 76 -113 151 -191 190 -55 27 -69 30 -161 30 -94 0
-104 -2 -167 -34 -80 -41 -148 -110 -185 -189 -24 -51 -27 -69 -28 -172 l-1
-115 -206 -3 c-199 -2 -207 -3 -207 -22 0 -19 7 -20 241 -20 226 0 241 1 234
18 -4 9 -13 48 -21 85 -34 158 46 316 194 385 49 23 70 27 147 27 78 0 98 -4
145 -27 68 -34 134 -97 168 -163 33 -66 42 -190 18 -261 -9 -26 -16 -51 -16
-56 0 -4 68 -8 150 -8 l150 0 0 251 0 252 80 -6 c44 -4 123 -18 175 -32 82
-22 100 -24 136 -15 93 25 134 84 127 181 -5 73 -39 120 -104 145 -49 19 -58
18 -199 -19 -33 -9 -95 -17 -137 -19 l-78 -3 0 337 c0 331 0 338 -20 338 -20
0 -20 -7 -20 -329z"/>
<path d="M1590 2759 c0 -226 1 -241 18 -234 9 3 46 13 82 21 154 36 319 -46
388 -194 23 -49 27 -70 27 -147 0 -78 -4 -98 -27 -145 -34 -68 -97 -134 -163
-168 -66 -33 -178 -41 -257 -18 -31 9 -59 16 -62 16 -3 0 -6 -88 -6 -195 l0
-195 705 0 c698 0 705 0 705 20 0 20 -8 20 -682 22 l-683 3 -3 143 -3 144 53
-9 c208 -33 394 81 452 277 41 138 -7 300 -119 398 -84 74 -210 111 -312 92
-31 -5 -60 -10 -65 -10 -4 0 -8 95 -8 210 0 203 -1 210 -20 210 -19 0 -20 -7
-20 -241z"/>
<path d="M711 1913 c-39 -20 -80 -77 -87 -124 -4 -21 4 -71 19 -129 14 -52 27
-130 29 -172 l3 -78 -337 0 c-331 0 -338 0 -338 -20 0 -20 7 -20 333 -20 l334
0 21 23 c19 20 22 35 22 98 0 41 -7 99 -15 129 -36 132 -38 155 -19 195 25 54
67 77 128 72 42 -4 55 -10 83 -41 40 -44 43 -89 13 -198 -12 -45 -20 -103 -20
-154 0 -71 3 -83 23 -102 22 -21 33 -22 242 -24 l220 -3 3 -154 c2 -103 -1
-157 -8 -161 -6 -4 -34 -1 -63 7 -146 39 -297 -37 -364 -184 -22 -48 -25 -65
-21 -137 7 -127 67 -219 176 -273 61 -30 141 -36 235 -19 l47 8 0 -226 c0
-219 1 -226 20 -226 19 0 20 7 20 259 l0 260 -57 -21 c-80 -28 -183 -29 -244
-2 -100 46 -162 144 -162 254 0 110 62 208 162 254 61 27 164 26 244 -2 l57
-21 0 215 0 214 -251 0 -252 0 6 80 c4 44 18 123 33 176 23 84 24 102 14 138
-14 49 -35 77 -81 105 -42 26 -120 28 -168 4z"/>
<path d="M2237 1229 c-146 -22 -271 -151 -292 -301 l-7 -48 90 0 89 0 7 42 c9
53 77 124 131 134 79 15 156 -23 193 -96 44 -87 22 -157 -76 -246 -97 -88
-155 -199 -163 -314 l-4 -45 86 -3 87 -3 7 48 c11 73 46 131 128 209 109 105
147 203 128 324 -32 200 -206 329 -404 299z m162 -56 c71 -23 137 -83 172
-158 24 -50 29 -73 29 -136 0 -101 -36 -176 -117 -245 -63 -54 -105 -114 -128
-185 -18 -52 -42 -68 -85 -54 -20 6 -21 12 -16 48 13 78 62 162 141 239 90 87
120 147 112 219 -10 82 -56 145 -132 180 -57 26 -112 24 -174 -8 -42 -20 -61
-38 -90 -84 -38 -62 -57 -75 -97 -65 -30 8 -30 28 1 91 28 57 46 80 96 118 75
57 188 73 288 40z"/>
<path d="M2209 176 c-2 -2 -3 -43 -1 -90 3 -63 7 -86 17 -86 16 0 25 31 25 88
l0 42 45 0 45 0 0 -65 c0 -58 2 -65 20 -65 19 0 20 7 20 90 l0 90 -83 0 c-46
0 -86 -2 -88 -4z"/>
</g>
</svg>
