<?xml version="1.0" standalone="no"?>
<!DOCTYPE svg PUBLIC "-//W3C//DTD SVG 20010904//EN"
 "http://www.w3.org/TR/2001/REC-SVG-20010904/DTD/svg10.dtd">
<svg version="1.0" xmlns="http://www.w3.org/2000/svg"
 width="300.000000pt" height="300.000000pt" viewBox="0 0 300.000000 300.000000"
 preserveAspectRatio="xMidYMid meet">
<metadata>
Created by potrace 1.10, written by Peter Selinger 2001-2011
</metadata>
<g transform="translate(0.000000,300.000000) scale(0.100000,-0.100000)"
fill="#000000" stroke="none">
<path d="M0 2310 l0 -690 220 0 220 0 -7 28 c-5 15 -8 70 -8 122 0 83 4 102
28 151 36 73 112 150 184 186 52 25 68 28 158 28 93 0 104 -2 160 -31 74 -39
148 -116 183 -192 23 -48 27 -71 27 -142 0 -47 -4 -100 -8 -117 l-9 -33 116 0
116 0 0 230 c0 222 1 231 21 251 20 20 29 21 103 16 44 -3 110 -15 146 -26 36
-12 89 -21 119 -21 49 0 57 3 92 39 35 35 39 44 39 91 0 62 -22 104 -66 125
-43 20 -94 19 -184 -6 -41 -11 -110 -22 -152 -25 -125 -9 -118 -31 -118 371
l0 335 -690 0 -690 0 0 -690z"/>
<path d="M1410 2662 l0 -337 98 6 c54 4 130 16 173 29 111 34 188 11 230 -70
37 -69 14 -184 -44 -223 -56 -37 -101 -40 -200 -13 -51 14 -129 27 -174 29
l-83 5 0 -249 0 -249 -151 0 c-138 0 -150 1 -145 18 64 213 0 384 -174 470
-47 23 -67 27 -145 27 -77 0 -98 -4 -147 -27 -147 -69 -227 -229 -194 -387 8
-36 17 -74 21 -83 7 -17 -8 -18 -234 -18 l-241 0 0 -90 0 -90 338 0 337 0 -6
92 c-3 51 -16 129 -28 172 -26 91 -24 131 13 186 63 95 218 93 283 -3 35 -53
37 -87 9 -189 -14 -51 -28 -130 -32 -175 l-7 -83 252 0 251 0 0 -214 0 -215
-57 21 c-80 28 -183 29 -244 2 -175 -81 -217 -310 -81 -450 76 -79 173 -98
300 -61 l82 24 0 -259 0 -258 401 0 400 0 -2 88 -2 87 86 3 87 3 0 -91 0 -90
310 0 310 0 0 750 0 750 -705 0 -705 0 0 196 c0 181 1 195 18 190 120 -36 229
-34 307 6 65 34 129 99 163 168 23 47 27 67 27 145 0 79 -3 97 -29 150 -73
149 -225 225 -383 191 -37 -8 -76 -17 -85 -21 -17 -7 -18 8 -18 234 l0 241
-90 0 -90 0 0 -338z m1020 -1455 c141 -52 239 -234 210 -388 -16 -84 -47 -136
-127 -213 -81 -78 -117 -136 -128 -209 l-7 -47 -89 0 -88 0 5 37 c18 141 69
240 169 331 94 86 115 152 76 238 -33 72 -107 111 -187 99 -63 -9 -130 -73
-140 -133 l-7 -42 -89 0 -90 0 7 48 c16 110 94 220 190 267 95 47 189 51 295
12z"/>
<path d="M2226 1193 c-133 -30 -245 -145 -246 -251 l0 -33 52 3 c51 3 54 5 71
43 52 111 164 162 265 120 51 -22 81 -52 108 -110 47 -99 25 -165 -93 -282
-88 -86 -127 -155 -139 -242 l-7 -52 59 3 58 3 19 64 c17 57 28 73 104 150
111 112 133 157 133 271 0 69 -5 95 -24 137 -63 134 -215 209 -360 176z"/>
<path d="M1620 2781 l0 -219 33 8 c186 51 362 -30 449 -208 30 -61 33 -75 33
-157 -1 -80 -4 -97 -32 -155 -81 -168 -253 -256 -420 -217 l-63 14 0 -158 0
-159 690 0 690 0 0 735 0 735 -690 0 -690 0 0 -219z"/>
<path d="M735 1886 c-80 -36 -101 -107 -64 -216 26 -79 39 -252 19 -275 -11
-13 -63 -15 -351 -15 l-339 0 0 -690 0 -690 690 0 c545 0 690 3 690 13 2 69
-2 452 -4 455 -2 2 -30 -4 -62 -14 -73 -21 -164 -15 -223 15 -186 95 -229 349
-85 494 86 85 186 113 300 83 34 -9 65 -16 68 -16 3 0 6 79 6 175 l0 175 -235
0 c-221 0 -235 1 -245 19 -17 34 -12 173 10 243 27 87 27 167 -2 203 -39 50
-113 68 -173 41z"/>
<path d="M2238 113 c-2 -16 -1 -47 1 -71 l3 -42 53 0 53 0 4 48 c6 88 4 92
-57 92 -51 0 -54 -1 -57 -27z"/>
</g>
</svg>
